<svg xmlns="http://www.w3.org/2000/svg" xmlns:xlink="http://www.w3.org/1999/xlink" version="1.1" width="256" height="256" viewBox="0 0 256 256" xml:space="preserve">

<defs>
</defs>
<g style="stroke: none; stroke-width: 0; stroke-dasharray: none; stroke-linecap: butt; stroke-linejoin: miter; stroke-miterlimit: 10; fill: none; fill-rule: nonzero; opacity: 1;" transform="translate(1.4065934065934016 1.4065934065934016) scale(2.81 2.81)" >
	<path d="M 79.323 62.369 L 61.8 45.68 l 14.352 -13.912 c 5.693 -5.693 5.693 -14.924 0 -20.618 c -5.071 -5.071 -12.943 -5.613 -18.627 -1.65 c -0.06 -0.062 -0.111 -0.129 -0.171 -0.19 c -7.155 -7.155 -18.756 -7.155 -25.911 0 c -2.037 2.037 -3.469 4.439 -4.341 6.991 c -6.894 -1.123 -14.209 0.967 -19.525 6.283 c -8.777 8.777 -8.777 23.008 0 31.785 c 1.071 1.071 2.225 2.01 3.439 2.82 c -2.263 5.31 -1.248 11.682 3.084 16.014 c 5.693 5.693 14.924 5.693 20.618 0 l 14.163 -14.101 l 16.726 16.983 L 79.323 62.369 z" style="stroke: none; stroke-width: 1; stroke-dasharray: none; stroke-linecap: butt; stroke-linejoin: miter; stroke-miterlimit: 10; fill: rgb(212,244,255); fill-rule: nonzero; opacity: 1;" transform=" matrix(1 0 0 1 0 0) " stroke-linecap="round" />
	<path d="M 66.152 64.203 c -0.256 0 -0.512 -0.098 -0.707 -0.293 L 34.541 33.005 c -0.391 -0.391 -0.391 -1.024 0 -1.414 c 0.391 -0.391 1.024 -0.391 1.414 0 l 30.904 30.905 c 0.391 0.391 0.391 1.024 0 1.414 C 66.664 64.105 66.408 64.203 66.152 64.203 z" style="stroke: none; stroke-width: 1; stroke-dasharray: none; stroke-linecap: butt; stroke-linejoin: miter; stroke-miterlimit: 10; fill: rgb(69,165,244); fill-rule: nonzero; opacity: 1;" transform=" matrix(1 0 0 1 0 0) " stroke-linecap="round" />
	<path d="M 24.41 78.465 c -3.989 0 -7.979 -1.519 -11.016 -4.555 c -4.317 -4.317 -5.688 -10.655 -3.599 -16.351 c -1.04 -0.746 -2.021 -1.579 -2.924 -2.483 c -9.153 -9.152 -9.153 -24.046 0 -33.199 c 5.128 -5.128 12.387 -7.592 19.572 -6.681 c 0.97 -2.495 2.411 -4.71 4.294 -6.592 c 3.649 -3.649 8.502 -5.659 13.662 -5.659 c 4.975 0 9.662 1.867 13.262 5.27 c 6.111 -3.789 14.06 -2.91 19.199 2.229 c 2.943 2.942 4.563 6.855 4.563 11.016 s -1.62 8.074 -4.563 11.016 c -0.391 0.391 -1.024 0.391 -1.414 0 c -0.391 -0.391 -0.391 -1.024 0 -1.414 c 2.565 -2.565 3.977 -5.975 3.977 -9.602 s -1.412 -7.037 -3.977 -9.602 c -4.653 -4.652 -11.949 -5.301 -17.348 -1.537 c -0.403 0.279 -0.948 0.229 -1.291 -0.125 c -0.041 -0.043 -0.08 -0.087 -0.118 -0.132 c -3.313 -3.318 -7.663 -5.12 -12.29 -5.12 s -8.976 1.802 -12.248 5.073 c -1.859 1.859 -3.239 4.082 -4.101 6.607 c -0.158 0.462 -0.626 0.743 -1.107 0.664 c -6.81 -1.107 -13.787 1.133 -18.658 6.003 c -8.373 8.374 -8.373 21.997 0 30.37 c 1.002 1.002 2.108 1.908 3.287 2.695 c 0.4 0.267 0.554 0.781 0.365 1.224 c -2.186 5.131 -1.059 10.985 2.871 14.915 c 5.295 5.294 13.909 5.294 19.204 0 c 0.391 -0.391 1.024 -0.391 1.414 0 c 0.391 0.391 0.391 1.024 0 1.414 C 32.389 76.946 28.399 78.465 24.41 78.465 z" style="stroke: none; stroke-width: 1; stroke-dasharray: none; stroke-linecap: butt; stroke-linejoin: miter; stroke-miterlimit: 10; fill: rgb(69,165,244); fill-rule: nonzero; opacity: 1;" transform=" matrix(1 0 0 1 0 0) " stroke-linecap="round" />
	<path d="M 72.738 57.618 c -0.256 0 -0.512 -0.098 -0.707 -0.293 L 54.742 40.036 c -1.538 -1.538 -2.385 -3.582 -2.385 -5.757 c 0 -2.175 0.847 -4.219 2.385 -5.757 c 1.537 -1.538 3.581 -2.385 5.757 -2.385 c 2.175 0 4.219 0.847 5.757 2.385 c 0.391 0.391 0.391 1.024 0 1.414 c -0.391 0.391 -1.024 0.391 -1.414 0 c -1.16 -1.16 -2.702 -1.799 -4.342 -1.799 s -3.182 0.639 -4.342 1.799 c -1.16 1.16 -1.799 2.702 -1.799 4.342 c 0 1.64 0.639 3.183 1.799 4.343 l 17.288 17.288 c 0.391 0.391 0.391 1.024 0 1.414 C 73.25 57.52 72.994 57.618 72.738 57.618 z" style="stroke: none; stroke-width: 1; stroke-dasharray: none; stroke-linecap: butt; stroke-linejoin: miter; stroke-miterlimit: 10; fill: rgb(69,165,244); fill-rule: nonzero; opacity: 1;" transform=" matrix(1 0 0 1 0 0) " stroke-linecap="round" />
	<path d="M 59.567 70.787 c -0.256 0 -0.512 -0.098 -0.707 -0.293 L 41.572 53.206 c -2.394 -2.394 -6.289 -2.395 -8.685 0 c -2.394 2.395 -2.394 6.291 0 8.686 c 0.391 0.391 0.391 1.024 0 1.414 c -0.391 0.391 -1.024 0.391 -1.414 0 c -3.174 -3.174 -3.174 -8.34 0 -11.514 c 3.174 -3.174 8.339 -3.174 11.514 0 L 60.274 69.08 c 0.391 0.391 0.391 1.024 0 1.414 C 60.079 70.69 59.823 70.787 59.567 70.787 z" style="stroke: none; stroke-width: 1; stroke-dasharray: none; stroke-linecap: butt; stroke-linejoin: miter; stroke-miterlimit: 10; fill: rgb(69,165,244); fill-rule: nonzero; opacity: 1;" transform=" matrix(1 0 0 1 0 0) " stroke-linecap="round" />
	<path d="M 55.637 87.056 c -0.256 0 -0.512 -0.098 -0.707 -0.293 c -0.391 -0.391 -0.391 -1.024 0 -1.414 l 33.368 -33.369 c 0.391 -0.391 1.024 -0.391 1.414 0 c 0.391 0.391 0.391 1.024 0 1.414 L 56.344 86.763 C 56.149 86.958 55.893 87.056 55.637 87.056 z" style="stroke: none; stroke-width: 1; stroke-dasharray: none; stroke-linecap: butt; stroke-linejoin: miter; stroke-miterlimit: 10; fill: rgb(69,165,244); fill-rule: nonzero; opacity: 1;" transform=" matrix(1 0 0 1 0 0) " stroke-linecap="round" />
</g>
</svg>